<svg width="1440" height="191" viewBox="0 0 1440 191" fill="none" xmlns="http://www.w3.org/2000/svg">
<g clip-path="url(#clip0)">
<path d="M0 34.89L24 46.5564C48 57.7866 96 81.7736 144 93.0038C192 104.67 240 104.67 288 104.67C336 104.67 384 104.67 432 122.115C480 139.56 528 174.45 576 174.45C624 174.45 672 139.56 720 116.337C768 92.6767 816 81.7736 864 75.5588C912 69.7801 960 69.7801 1008 75.5588C1056 81.7736 1104 92.6767 1152 104.67C1200 116.664 1248 127.567 1296 133.782C1344 139.56 1392 139.56 1416 139.56H1440V348.901H1416C1392 348.901 1344 348.901 1296 348.901C1248 348.901 1200 348.901 1152 348.901C1104 348.901 1056 348.901 1008 348.901C960 348.901 912 348.901 864 348.901C816 348.901 768 348.901 720 348.901C672 348.901 624 348.901 576 348.901C528 348.901 480 348.901 432 348.901C384 348.901 336 348.901 288 348.901C240 348.901 192 348.901 144 348.901C96 348.901 48 348.901 24 348.901H0V34.89Z" fill="#0099FF"/>
<path d="M1440.03 27.4084L1416.13 38.205C1392.23 48.6034 1344.44 70.7935 1296.6 81.3405C1248.76 92.2856 1200.89 92.5828 1153.01 92.8799C1105.13 93.1771 1057.26 93.4743 1009.44 109.694C961.623 125.913 913.867 158.054 865.99 158.351C818.113 158.649 770.116 127.102 722.159 106.202C674.201 84.9051 626.287 75.251 578.388 69.8759C530.492 64.8988 482.615 65.196 434.758 70.7674C386.902 76.7368 339.063 86.9853 291.227 98.2289C243.392 109.473 195.553 119.721 147.697 125.69C99.8401 131.262 51.9633 131.559 28.0248 131.708L4.08642 131.856L4.80717 322.922L28.7456 322.773C52.684 322.625 100.561 322.327 148.438 322.03C196.315 321.733 244.191 321.436 292.068 321.139C339.945 320.842 387.822 320.544 435.699 320.247C483.576 319.95 531.453 319.653 579.329 319.356C627.206 319.059 675.083 318.761 722.96 318.464C770.837 318.167 818.714 317.87 866.591 317.573C914.467 317.276 962.344 316.978 1010.22 316.681C1058.1 316.384 1105.97 316.087 1153.85 315.79C1201.73 315.493 1249.61 315.195 1297.48 314.898C1345.36 314.601 1393.24 314.304 1417.17 314.155L1441.11 314.007L1440.03 27.4084Z" fill="#0099FF"/>
</g>
<defs>
<clipPath id="clip0">
<rect width="1440" height="245" fill="white"/>
</clipPath>
</defs>
</svg>
